<svg xmlns="http://www.w3.org/2000/svg" viewBox="0 0 32 32">
  <circle cx="16" cy="16" r="16" fill="#f7931a"/>
  <path
    fill="#ffffff"
    d="M18.5 15.7c.9-.2 1.5-.8 1.6-1.6.2-1.3-.8-2-2.3-2.5l.5-2-1.2-.3-.5 1.9c-.3-.1-.6-.2-.9-.3l.5-2-1.2-.3-.5 2c-.2 0-.4-.1-.6-.2l-1.7-.4-.3 1.3s.9.2.9.2c.5.1.6.4.6.6l-.6 2.4c.1 0 .2 0 .2.1l-.2-.1-.8 3.1c-.1.2-.3.5-.7.4 0 0-.9-.2-.9-.2l-.6 1.4 1.6.4c.3.1.6.2.9.2l-.5 2 1.2.3.5-2c.3.1.6.2.9.3l-.5 2 1.2.3.5-2c2.2.4 3.9.2 4.6-1.7.6-1.5 0-2.4-1.2-3zM16.6 12c.6.1 2.4.4 2.2 1.5-.1 1-1.8.8-2.4.7l.2-2.2zm-.5 6.2l.2-2.4c.7.1 2.9.5 2.7 1.8-.2 1.3-2.2.8-2.9.6z"
  />
</svg>
